<?xml version="1.0" encoding="UTF-8" standalone="no"?>
<svg
   xmlns:dc="http://purl.org/dc/elements/1.1/"
   xmlns:cc="http://creativecommons.org/ns#"
   xmlns:rdf="http://www.w3.org/1999/02/22-rdf-syntax-ns#"
   xmlns:svg="http://www.w3.org/2000/svg"
   xmlns="http://www.w3.org/2000/svg"
   xmlns:sodipodi="http://sodipodi.sourceforge.net/DTD/sodipodi-0.dtd"
   xmlns:inkscape="http://www.inkscape.org/namespaces/inkscape"
   width="45.497971"
   zoomAndPan="magnify"
   viewBox="0 0 34.123478 35.965799"
   height="47.954399"
   preserveAspectRatio="xMidYMid meet"
   version="1.0"
   id="svg67"
   sodipodi:docname="ObsidCraftCoreBot.svg"
   inkscape:version="0.92.3 (2405546, 2018-03-11)">
  <metadata
     id="metadata71">
    <rdf:RDF>
      <cc:Work
         rdf:about="">
        <dc:format>image/svg+xml</dc:format>
        <dc:type
           rdf:resource="http://purl.org/dc/dcmitype/StillImage" />
        <dc:title></dc:title>
      </cc:Work>
    </rdf:RDF>
  </metadata>
  <sodipodi:namedview
     pagecolor="#ffffff"
     bordercolor="#666666"
     borderopacity="1"
     objecttolerance="10"
     gridtolerance="10"
     guidetolerance="10"
     inkscape:pageopacity="0"
     inkscape:pageshadow="2"
     inkscape:window-width="1920"
     inkscape:window-height="1017"
     id="namedview69"
     showgrid="false"
     fit-margin-top="2"
     fit-margin-left="2"
     fit-margin-right="2"
     fit-margin-bottom="2"
     inkscape:zoom="1.7109375"
     inkscape:cx="22.748033"
     inkscape:cy="23.32095"
     inkscape:window-x="-8"
     inkscape:window-y="-8"
     inkscape:window-maximized="1"
     inkscape:current-layer="svg67" />
  <defs
     id="defs37">
    <filter
       x="0"
       y="0"
       width="1"
       height="1"
       id="d726744206">
      <feColorMatrix
         values="0 0 0 0 1 0 0 0 0 1 0 0 0 0 1 0 0 0 1 0"
         id="feColorMatrix2"
         style="color-interpolation-filters:sRGB" />
    </filter>
    <clipPath
       id="1e4997c909">
      <path
         d="m 80,7 h 32 V 40 H 80 Z m 0,0"
         id="path5"
         inkscape:connector-curvature="0"
         style="clip-rule:nonzero" />
    </clipPath>
    <clipPath
       id="2e8b08d2c0">
      <path
         d="m 78.492188,13.609375 25.566402,-8.53125 9.45313,28.332031 -25.566408,8.527344 z m 0,0"
         id="path8"
         inkscape:connector-curvature="0"
         style="clip-rule:nonzero" />
    </clipPath>
    <clipPath
       id="b7a460591b">
      <path
         d="M 85.460938,11.28125 97.089844,7.402344 c 1.847656,-0.617188 3.867186,-0.472656 5.609376,0.398437 1.74219,0.871094 3.06641,2.398438 3.68359,4.246094 l 4.80078,14.394531 c 0.61719,1.847656 0.47657,3.863282 -0.39453,5.605469 -0.87109,1.746094 -2.39843,3.070313 -4.24609,3.6875 l -11.628908,3.878906 c -1.847656,0.617188 -3.867187,0.472657 -5.609374,-0.398437 -1.742188,-0.867188 -3.070313,-2.398438 -3.6875,-4.246094 L 80.816406,20.578125 c -0.617187,-1.847656 -0.472656,-3.867187 0.398438,-5.609375 0.871094,-1.742188 2.398437,-3.070312 4.246094,-3.6875 z m 0,0"
         id="path11"
         inkscape:connector-curvature="0"
         style="clip-rule:nonzero" />
    </clipPath>
    <mask
       id="5975578a13">
      <g
         id="g16"
         style="filter:url(#d726744206)">
        <rect
           x="-19.200001"
           width="230.39999"
           y="-4.8000002"
           height="57.599998"
           id="rect14"
           style="fill:#000000;fill-opacity:0.83999999" />
      </g>
    </mask>
    <clipPath
       id="b488dd43f8">
      <path
         d="M 0.523438,0.578125 H 27.476562 V 30.441406 H 0.523438 Z m 0,0"
         id="path19"
         inkscape:connector-curvature="0"
         style="clip-rule:nonzero" />
    </clipPath>
    <clipPath
       id="bf36c56bdb">
      <path
         d="m 7.871094,0.578125 h 12.257812 c 1.949219,0 3.816406,0.773437 5.195313,2.152344 1.378906,1.375 2.152343,3.246093 2.152343,5.195312 v 15.171875 c 0,1.945313 -0.773437,3.816406 -2.152343,5.195313 -1.378907,1.375 -3.246094,2.148437 -5.195313,2.148437 H 7.871094 c -1.949219,0 -3.816406,-0.773437 -5.195313,-2.148437 -1.378906,-1.378907 -2.152343,-3.25 -2.152343,-5.195313 V 7.925781 c 0,-1.949219 0.773437,-3.820312 2.152343,-5.195312 C 4.054688,1.351562 5.921875,0.578125 7.871094,0.578125 Z m 0,0"
         id="path22"
         inkscape:connector-curvature="0"
         style="clip-rule:nonzero" />
    </clipPath>
    <clipPath
       id="7666958803">
      <rect
         x="0"
         width="28"
         y="0"
         height="31"
         id="rect25" />
    </clipPath>
    <clipPath
       id="96213e9239">
      <path
         d="m 91,11 h 11 V 36 H 91 Z m 0,0"
         id="path28"
         inkscape:connector-curvature="0"
         style="clip-rule:nonzero" />
    </clipPath>
    <clipPath
       id="4520c94d25">
      <path
         d="m 87.886719,12.542969 9.980469,-2.480469 6.027342,24.242188 -9.984374,2.480468 z m 0,0"
         id="path31"
         inkscape:connector-curvature="0"
         style="clip-rule:nonzero" />
    </clipPath>
    <clipPath
       id="5f96640d1d">
      <path
         d="m 87.886719,12.542969 9.980469,-2.480469 6.027342,24.242188 -9.984374,2.480468 z m 0,0"
         id="path34"
         inkscape:connector-curvature="0"
         style="clip-rule:nonzero" />
    </clipPath>
  </defs>
  <g
     clip-path="url(#1e4997c909)"
     id="g45"
     transform="translate(-78.938975,-5.5249127)">
    <g
       clip-path="url(#2e8b08d2c0)"
       id="g43">
      <g
         clip-path="url(#b7a460591b)"
         id="g41">
        <path
           d="m 78.492188,13.609375 25.566402,-8.53125 9.45313,28.332031 -25.566408,8.527344 z m 0,0"
           id="path39"
           inkscape:connector-curvature="0"
           style="fill:#545454;fill-opacity:1;fill-rule:nonzero" />
      </g>
    </g>
  </g>
  <g
     mask="url(#5975578a13)"
     id="g57"
     transform="translate(-78.938975,-5.5249127)">
    <g
       transform="translate(82,8)"
       id="g55">
      <g
         clip-path="url(#7666958803)"
         id="g53">
        <g
           clip-path="url(#b488dd43f8)"
           id="g51">
          <g
             clip-path="url(#bf36c56bdb)"
             id="g49">
            <path
               d="M 0.523438,0.578125 H 27.476562 V 30.441406 H 0.523438 Z m 0,0"
               id="path47"
               inkscape:connector-curvature="0"
               style="fill:#a6a6a6;fill-opacity:1;fill-rule:nonzero" />
          </g>
        </g>
      </g>
    </g>
  </g>
  <g
     clip-path="url(#96213e9239)"
     id="g65"
     transform="translate(-78.938975,-5.5249127)">
    <g
       clip-path="url(#4520c94d25)"
       id="g63">
      <g
         clip-path="url(#5f96640d1d)"
         id="g61">
        <path
           d="m 101.38281,23.554688 0.48438,1.953124 c -0.10547,0.625 -0.21094,1.25 -0.31641,1.875 -0.39062,2.34375 -0.78125,4.6875 -1.17187,7.03125 -0.043,0.265626 -0.0937,0.527344 -0.16016,0.785157 -0.0391,0.121093 -0.11719,0.203125 -0.238281,0.242187 -0.117188,0.03906 -0.230469,0.02344 -0.332031,-0.05078 C 99.40625,35.214844 99.171875,35.023438 98.945312,34.824219 97.160156,33.253906 95.375,31.683594 93.59375,30.109375 93.265625,29.820312 92.9375,29.53125 92.613281,29.242188 c -0.746093,-0.660157 -0.75,-0.664063 -0.722656,-1.621094 0.04687,-1.503906 0.09375,-3.007813 0.140625,-4.515625 0.113281,-3.675781 0.226562,-7.355469 0.339844,-11.035157 0.0078,-0.167968 0.03906,-0.328124 0.08594,-0.488281 0.04687,-0.09766 0.121094,-0.15625 0.222657,-0.183593 0.101562,-0.02344 0.195312,-0.0039 0.28125,0.05859 0.203124,0.222657 0.40625,0.449219 0.589843,0.683594 2.296875,2.964844 4.59375,5.925781 6.890626,8.890625 0.18359,0.238281 0.32031,0.503906 0.40625,0.796875 0.17578,0.574219 0.34375,1.152344 0.51953,1.730469 z m -2.046872,10.574218 c 0.03516,-0.03906 0.105468,-0.08203 0.105468,-0.128906 0.04687,-0.765625 0.09375,-1.53125 0.128906,-2.296875 0.08203,-1.902344 0.160157,-3.808594 0.246094,-5.710937 0.02344,-0.214844 -0.05078,-0.386719 -0.222656,-0.515626 -0.898438,-0.75 -1.789062,-1.511718 -2.691406,-2.257812 -0.671875,-0.550781 -1.355469,-1.085938 -2.035156,-1.625 -0.113282,-0.05859 -0.191407,-0.02734 -0.242188,0.08594 -0.04297,0.125 -0.08984,0.25 -0.125,0.378906 -0.519531,1.9375 -1.035156,3.875 -1.550781,5.8125 -0.04687,0.125 -0.07422,0.257812 -0.08203,0.390625 0.0039,0.132812 0.04297,0.253906 0.113281,0.363281 0.08594,0.105469 0.179687,0.199219 0.289062,0.277344 1.855469,1.636718 3.710938,3.273437 5.566407,4.910156 0.128906,0.109375 0.261718,0.207031 0.398437,0.300781 0.02344,0.01953 0.0625,0.01172 0.101563,0.01563 z M 93.539062,13.425781 c -0.01953,0.02734 -0.05859,0.05859 -0.05859,0.08203 0.03516,0.328126 0.04687,0.664063 0.109375,0.984376 0.210937,1.082031 0.445312,2.160156 0.664062,3.242187 0.144532,0.71875 0.304688,1.4375 0.421875,2.164063 0.06641,0.484374 0.296875,0.875 0.683594,1.175781 0.183594,0.148437 0.359375,0.296875 0.542969,0.445312 0.824218,0.679688 1.652344,1.359375 2.476562,2.035157 0.308594,0.257812 0.609375,0.519531 0.914063,0.78125 0.07813,0.0625 0.15625,0.125 0.238281,0.183593 0.07813,0.0625 0.167969,0.121094 0.261719,0.03516 0.05078,-0.04688 0.08203,-0.101563 0.09375,-0.167969 0.03516,-0.699219 0.05859,-1.398438 0.101562,-2.097657 0.03516,-0.453124 -0.09375,-0.851562 -0.382812,-1.199218 -1.910157,-2.449219 -3.800781,-4.910156 -5.703125,-7.363282 -0.08594,-0.101562 -0.175782,-0.195312 -0.273438,-0.28125 -0.01953,-0.01953 -0.0625,-0.01172 -0.08984,-0.01953 z m 0.132813,4.855469 -0.01953,0.0039 c -0.136719,-0.617187 -0.265625,-1.238281 -0.410156,-1.855468 -0.04297,-0.121094 -0.09766,-0.234376 -0.164063,-0.34375 -0.15625,0.07422 -0.125,0.214843 -0.128906,0.34375 -0.03516,1.03125 -0.07031,2.0625 -0.101563,3.09375 -0.05859,1.730468 -0.113281,3.464843 -0.167968,5.195312 -0.01172,0.132812 -0.01172,0.265625 0,0.398438 0.02734,0.08203 0.07031,0.15625 0.125,0.222656 0.04297,-0.04687 0.105468,-0.08984 0.121093,-0.144532 0.203125,-0.707031 0.402344,-1.410156 0.585938,-2.121093 0.199219,-0.773438 0.382812,-1.550781 0.574219,-2.328125 -0.136719,-0.820313 -0.277344,-1.640625 -0.414063,-2.464844 z m 7.406255,6.824219 c -0.11329,-0.320313 -0.17579,-0.511719 -0.25,-0.695313 -0.0234,-0.05469 -0.0937,-0.08594 -0.14454,-0.128906 -0.0312,0.05469 -0.0898,0.109375 -0.0898,0.164062 -0.0742,1.566407 -0.14453,3.128907 -0.20703,4.695313 -0.004,0.05078 0.0547,0.105469 0.0859,0.15625 0.0234,-0.0625 0.043,-0.125 0.0586,-0.191406 0.19922,-1.113281 0.41016,-2.226563 0.58594,-3.34375 0.0156,-0.222657 0.004,-0.441407 -0.0391,-0.65625 z m 0,0"
           id="path59"
           inkscape:connector-curvature="0"
           style="fill:#545454;fill-opacity:1;fill-rule:nonzero" />
      </g>
    </g>
  </g>
</svg>
